<svg width="190" height="36" viewBox="0 0 190 36" fill="none" xmlns="http://www.w3.org/2000/svg" role="img" aria-label="Crazyrouter">
  <rect x="1" y="1" width="34" height="34" rx="10" fill="#0D9373"/>
  <path d="M12 11.5C13.6 9.7 15.65 8.8 18.15 8.8C20.4 8.8 22.27 9.53 23.75 11L21.95 13.35C20.98 12.42 19.75 11.95 18.25 11.95C16.72 11.95 15.47 12.48 14.5 13.55C13.55 14.6 13.08 16 13.08 17.75C13.08 19.5 13.57 20.92 14.55 22C15.55 23.08 16.82 23.62 18.35 23.62C20.05 23.62 21.4 23.02 22.4 21.82L24.35 24.05C22.8 25.88 20.75 26.8 18.2 26.8C15.63 26.8 13.55 25.98 11.95 24.35C10.35 22.72 9.55 20.52 9.55 17.75C9.55 15.12 10.37 13.03 12 11.5Z" fill="white"/>
  <path d="M24.6 10H27.9L23.7 26H20.4L24.6 10Z" fill="white" opacity="0.88"/>
  <text x="46" y="23.5" fill="#0F172A" font-family="Inter, ui-sans-serif, system-ui, -apple-system, BlinkMacSystemFont, 'Segoe UI', sans-serif" font-size="19" font-weight="750" letter-spacing="-0.02em">Crazyrouter</text>
</svg>
